<svg width="91" height="90" viewBox="0 0 91 90" fill="none" xmlns="http://www.w3.org/2000/svg">
<path d="M81.0534 0H10.4193C5.07153 0 0.736328 4.3352 0.736328 9.68294V80.3171C0.736328 85.6648 5.07153 90 10.4193 90H81.0534C86.4011 90 90.7363 85.6648 90.7363 80.3171V9.68294C90.7363 4.3352 86.4011 0 81.0534 0Z" fill="black"/>
<path d="M71.5863 70.8568C73.5266 68.9165 69.5904 62.4497 70.959 60.5994C72.5948 58.3865 78.4819 60.4432 80.7796 59.0774C83.0772 57.7115 81.9999 54.265 82.5743 51.6788C83.1487 49.0926 87.196 48.8782 87.196 45.0003C87.196 41.1224 83.1487 40.9053 82.5743 38.3218C81.9999 35.7356 83.0772 32.2891 80.7796 30.9232C78.4819 29.5574 72.5948 31.6141 70.959 29.4012C69.5904 27.5482 73.524 21.0815 71.5863 19.1438C69.646 17.2035 63.1793 21.1397 61.329 19.7712C59.116 18.1353 61.1728 12.2482 59.8069 9.95059C58.441 7.65294 54.9946 8.7303 52.4084 8.15588C49.8222 7.58147 49.6078 3.53412 45.7299 3.53412C41.8519 3.53412 41.6348 7.58147 39.0513 8.15588C36.4651 8.7303 33.0187 7.65294 31.6528 9.95059C30.2869 12.2482 32.3437 18.1353 30.1307 19.7712C28.2778 21.1397 21.811 17.2062 19.8734 19.1438C17.9331 21.0841 21.8693 27.5509 20.5007 29.4012C18.8649 31.6141 12.9778 29.5574 10.6801 30.9232C8.3825 32.2891 9.45985 35.7356 8.88544 38.3218C8.31102 40.9079 4.26367 41.1224 4.26367 45.0003C4.26367 48.8782 8.31102 49.0953 8.88544 51.6788C9.45985 54.265 8.3825 57.7115 10.6801 59.0774C12.9778 60.4432 18.8649 58.3865 20.5007 60.5994C21.8693 62.4524 17.9357 68.9191 19.8734 70.8568C21.8137 72.7971 28.2804 68.8609 30.1307 70.2294C32.3437 71.8653 30.2869 77.7524 31.6528 80.05C33.0187 82.3476 36.4651 81.2703 39.0513 81.8447C41.6375 82.4191 41.8519 86.4665 45.7299 86.4665C49.6078 86.4665 49.8248 82.4191 52.4084 81.8447C54.9946 81.2703 58.441 82.3476 59.8069 80.05C61.1728 77.7524 59.116 71.8653 61.329 70.2294C63.1819 68.8609 69.6487 72.7944 71.5863 70.8568Z" fill="white"/>
<path d="M64.9026 64.1726C66.34 62.7353 63.4229 57.9388 64.4367 56.565C65.6491 54.9238 70.0141 56.4485 71.7188 55.4373C73.4235 54.4262 72.6241 51.8691 73.0503 49.9526C73.4764 48.0362 76.4755 47.8747 76.4755 45C76.4755 42.1253 73.4764 41.9638 73.0503 40.0473C72.6241 38.1309 73.4235 35.5738 71.7188 34.5626C70.0141 33.5515 65.6491 35.0762 64.4367 33.435C63.4229 32.0612 66.34 27.2673 64.9026 25.8273C63.4653 24.39 58.6688 27.307 57.295 26.2932C55.6538 25.0809 57.1785 20.7159 56.1673 19.0112C55.1561 17.3065 52.5991 18.1059 50.6826 17.6797C48.7661 17.2535 48.6047 14.2544 45.73 14.2544C42.8553 14.2544 42.6938 17.2535 40.7773 17.6797C38.8608 18.1059 36.3038 17.3065 35.2926 19.0112C34.2814 20.7159 35.8061 25.0809 34.165 26.2932C32.7911 27.307 27.9973 24.39 26.5573 25.8273C25.12 27.2647 28.037 32.0612 27.0232 33.435C25.8108 35.0762 21.4458 33.5515 19.7411 34.5626C18.0364 35.5738 18.8358 38.1309 18.4097 40.0473C17.9835 41.9638 14.9844 42.1253 14.9844 45C14.9844 47.8747 17.9835 48.0362 18.4097 49.9526C18.8358 51.8691 18.0364 54.4262 19.7411 55.4373C21.4458 56.4485 25.8108 54.9238 27.0232 56.565C28.037 57.9388 25.12 62.7326 26.5573 64.1726C27.9947 65.6126 32.7911 62.6929 34.165 63.7067C35.8061 64.9191 34.2814 69.2841 35.2926 70.9888C36.3038 72.6935 38.8608 71.8941 40.7773 72.3203C42.6938 72.7464 42.8553 75.7456 45.73 75.7456C48.6047 75.7456 48.7661 72.7464 50.6826 72.3203C52.5991 71.8941 55.1561 72.6935 56.1673 70.9888C57.1785 69.2841 55.6538 64.9191 57.295 63.7067C58.6688 62.6929 63.4626 65.61 64.9026 64.1726Z" fill="black"/>
<path d="M57.7812 57.0467C58.6838 56.144 56.852 53.129 57.49 52.2661C58.2523 51.2364 60.9947 52.192 62.0668 51.5567C63.1388 50.9214 62.6359 49.3146 62.9032 48.1102C63.1706 46.9058 65.0553 46.8052 65.0553 44.9972C65.0553 43.1893 63.1706 43.0887 62.9032 41.8843C62.6359 40.6799 63.1362 39.0731 62.0668 38.4378C60.9947 37.8025 58.2523 38.7608 57.49 37.7284C56.852 36.8655 58.6865 33.8531 57.7812 32.9478C56.8785 32.0452 53.8635 33.8769 53.0006 33.239C51.9709 32.4767 52.9265 29.7343 52.2912 28.6622C51.6559 27.5902 50.0491 28.0931 48.8447 27.8258C47.6403 27.5584 47.5397 25.6737 45.7317 25.6737C43.9238 25.6737 43.8232 27.5584 42.6188 27.8258C41.4144 28.0931 39.8076 27.5928 39.1723 28.6622C38.537 29.7343 39.4953 32.4767 38.4629 33.239C37.6 33.8769 34.5876 32.0425 33.6823 32.9478C32.777 33.8531 34.6114 36.8655 33.9735 37.7284C33.2111 38.7581 30.4688 37.8025 29.3967 38.4378C28.3247 39.0731 28.8276 40.6799 28.5603 41.8843C28.2929 43.0887 26.4082 43.1893 26.4082 44.9972C26.4082 46.8052 28.2929 46.9058 28.5603 48.1102C28.8276 49.3146 28.3273 50.9214 29.3967 51.5567C30.4688 52.192 33.2111 51.2337 33.9735 52.2661C34.6114 53.129 32.777 56.1414 33.6823 57.0467C34.585 57.9493 37.6 56.1175 38.4629 56.7555C39.4926 57.5178 38.537 60.2602 39.1723 61.3323C39.8076 62.4043 41.4144 61.9014 42.6188 62.1687C43.8232 62.4361 43.9238 64.3208 45.7317 64.3208C47.5397 64.3208 47.6403 62.4361 48.8447 62.1687C50.0491 61.9014 51.6559 62.4017 52.2912 61.3323C52.9265 60.2602 51.9682 57.5178 53.0006 56.7555C53.8635 56.1175 56.8759 57.952 57.7812 57.0467Z" fill="white"/>
</svg>
