<?xml version="1.0" encoding="utf-8"?>
<!-- Generator: Adobe Illustrator 28.0.0, SVG Export Plug-In . SVG Version: 6.00 Build 0)  -->
<svg version="1.1" id="dotted" xmlns="http://www.w3.org/2000/svg" xmlns:xlink="http://www.w3.org/1999/xlink" x="0px" y="0px"
	 viewBox="0 0 24 24" style="enable-background:new 0 0 24 24;" xml:space="preserve">
<path d="M24,26.7l-5.8-4.5l0.5,1.9h-16c-1.5,0-2.7-1.2-2.7-2.7V2.7C0.1,1.2,1.3,0,2.7,0h18.7C22.9,0,24,1.2,24,2.7V26.7z M17.8,7.4
	c0,0-1.6-1.3-3.6-1.4l-0.4,0.8c-0.6-0.1-1.2-0.2-1.7-0.2c-0.5,0-1.2,0.1-1.7,0.2L9.9,6c-2,0.2-3.6,1.4-3.6,1.4s-1.8,2.6-2.1,7.8
	c1.8,2.1,4.6,2.1,4.6,2.1l0.6-0.8c-0.6-0.2-1.1-0.5-1.6-0.9l0.1-0.3c1,0.4,2.2,0.7,4.1,0.7s3.2-0.3,4.1-0.7l0.1,0.3
	c-0.5,0.4-1,0.7-1.6,0.9l0.6,0.8c0,0,2.8,0,4.6-2.1C19.6,10.1,17.8,7.4,17.8,7.4z M9.4,13.8c-0.7,0-1.3-0.7-1.3-1.6s0.6-1.6,1.3-1.6
	s1.3,0.7,1.3,1.6C10.6,13.1,10.1,13.8,9.4,13.8z M14.7,13.8c-0.7,0-1.3-0.7-1.3-1.6s0.6-1.6,1.3-1.6c0.7,0,1.3,0.7,1.3,1.6
	C16,13.1,15.4,13.8,14.7,13.8z"/>
</svg>
