<?xml version="1.0" encoding="UTF-8"?>
<svg id="Layer_2" data-name="Layer 2" xmlns="http://www.w3.org/2000/svg" viewBox="0 0 448 448">
  <defs>
    <style>
      .cls-1 {
        stroke-width: 0px;
      }
    </style>
  </defs>
  <g id="Layer_1-2" data-name="Layer 1">
    <path class="cls-1" d="m400,0H48C21.5,0,0,21.5,0,48v352c0,26.5,21.5,48,48,48h352c26.5,0,48-21.5,48-48V48c0-26.5-21.5-48-48-48Zm-122.7,383.7c-8.4,1.5-11.5-3.7-11.5-8-1.88-8.77,7.28-74.46-11.1-86,37-4.1,76-9.2,76-73.1,0-18.2-6.5-27.3-17.1-39,1.7-4.3,7.4-22-1.7-45-13.9-4.3-45.7,17.9-45.7,17.9-26.51-7.45-56.69-7.45-83.2,0,0,0-31.8-22.2-45.7-17.9-9.1,22.9-3.5,40.6-1.7,45-10.6,11.7-15.6,20.8-15.6,39,0,63.6,37.3,69,74.3,73.1-4.8,4.3-9.1,11.7-10.6,22.3-45.32,19.8-42.66-27.6-73.8-31-16.2-.2-1.1,10.2-1.1,10.2,10.8,5,18.4,24.2,18.4,24.2,9.7,29.7,56.1,19.7,56.1,19.7,0,13.9.2,36.5.2,40.6s-3,9.5-11.5,8C2.25,329.82,35.78,59.79,221.81,63.9c186.5-4.72,226.94,263.75,55.49,319.8Zm-98.1-61.1c-4.62.98-5.26-4.12-.9-4.9,4.41-.57,5.52,4.03.9,4.9h0Zm-9.5-.9c.11,3.08-7.49,3.3-7.2,0-.09-3.05,7.27-3.32,7.2,0Zm-13.7-1.1c-.89,2.98-7.83,1.08-6.9-1.9.96-3.12,8.03-1.13,6.9,1.9Zm-12.3-5.4c-1.89,2.63-7.61-2.56-5.2-4.7,1.94-2.67,7.35,2.57,5.2,4.7Zm-9.1-9.1c-2.14,1.53-6.35-3.85-3.7-5.4,2.51-2.02,6.19,3.81,3.7,5.4Zm-6.5-9.7c-1.95,2-6.02-2.51-3.9-4.1,1.95-2,6.02,2.51,3.9,4.1Zm-6.7-7.4c-.91,2.11-5.31-.38-4.3-2.2.93-1.75,5.35.37,4.3,2.2Z"/>
  </g>
</svg>