<?xml version="1.0" encoding="utf-8"?>
<!-- Generator: Adobe Illustrator 28.0.0, SVG Export Plug-In . SVG Version: 6.00 Build 0)  -->
<svg version="1.1" id="Layer_1" xmlns="http://www.w3.org/2000/svg" xmlns:xlink="http://www.w3.org/1999/xlink" x="0px" y="0px"
	 viewBox="0 0 50 50" style="enable-background:new 0 0 50 50;" xml:space="preserve">
<g>
	<path d="M41.7,0H8.3C3.7,0,0,3.7,0,8.3v33.3C0,46.3,3.7,50,8.3,50h33.3c4.6,0,8.3-3.7,8.3-8.3V8.3C50,3.7,46.3,0,41.7,0z
		 M30.9,39.3l-7.8-11.1l-9.4,11.1h-3l11.1-13l-11-15.6h9.4l6.7,9.5l8.1-9.5h3l-9.8,11.4l12.1,17.1H30.9z"/>
	<polygon points="15.4,13.1 32.2,36.9 35.8,36.9 19,13.1 	"/>
</g>
</svg>
